<svg id="Capa_1" enable-background="new 0 0 512 512" height="512" viewBox="0 0 512 512" width="512" xmlns="http://www.w3.org/2000/svg"><g><g fill="#020288"><path d="m476.566 81.918h-143.31c-5.523 0-10 4.477-10 10s4.477 10 10 10h143.31c8.51 0 15.434 7.038 15.434 15.688v241.039h-472v-241.039c0-8.65 6.924-15.688 15.434-15.688h128.29c5.523 0 10-4.477 10-10s-4.477-10-10-10h-128.29c-19.538 0-35.434 16.01-35.434 35.688v300.804c0 19.679 15.896 35.688 35.434 35.688h138.194v30.69h-61.905c-5.523 0-10 4.477-10 10s4.477 10 10 10h288.555c5.523 0 10-4.477 10-10s-4.477-10-10-10h-61.905v-30.69h138.194c19.539 0 35.434-16.01 35.434-35.688v-300.804c-.001-19.678-15.897-35.688-35.435-35.688zm-158.194 402.87h-124.744v-30.69h124.744zm173.628-66.378c0 8.651-6.924 15.688-15.434 15.688h-441.132c-8.51 0-15.434-7.038-15.434-15.688v-39.765h472z"/><path d="m241.702 416.371h28.596c5.523 0 10-4.477 10-10s-4.477-10-10-10h-28.596c-5.523 0-10 4.477-10 10s4.477 10 10 10z"/></g><g><g><path d="m186.538 280.812c-29.679-13.267-48.856-42.535-48.856-74.564v-144.724c23.746-11.578 43.091-30.749 54.807-54.311h127.023c11.716 23.562 31.061 42.733 54.807 54.311v144.725c0 32.029-19.177 61.297-48.856 74.564l-69.463 31.05z" fill="#b2f0fb"/></g><g><g><path d="m249.669 191.785c-2.516 0-4.954-.949-6.813-2.681l-26.612-24.777c-4.042-3.763-4.269-10.091-.505-14.133 3.763-4.042 10.091-4.269 14.133-.505l18.176 16.922 30.432-43.72c3.155-4.533 9.388-5.65 13.92-2.495 4.533 3.155 5.65 9.388 2.495 13.92l-37.017 53.181c-1.656 2.379-4.263 3.922-7.145 4.23-.356.039-.71.058-1.064.058z" fill="#020288"/></g></g></g></g></svg>