<?xml version="1.0" encoding="UTF-8"?>
<svg width="165px" height="148px" viewBox="0 0 165 148" version="1.1" xmlns="http://www.w3.org/2000/svg" xmlns:xlink="http://www.w3.org/1999/xlink">
    <!-- Generator: Sketch 61.2 (89653) - https://sketch.com -->
    <title>Group 4</title>
    <desc>Created with Sketch.</desc>
    <g id="Page-1" stroke="none" stroke-width="1" fill="none" fill-rule="evenodd">
        <g id="Group-4" transform="translate(-0.093750, 0.812500)" fill-rule="nonzero">
            <path d="M18.59375,51.1875 C24.6171875,51.1875 29.65625,49.2304688 33.7109375,45.3164062 C37.765625,41.4023438 39.7929688,36.3632812 39.7929688,30.1992188 L39.7929688,30.1992188 L39.7929688,20.9882812 C39.7929688,14.8476563 37.765625,9.81445312 33.7109375,5.88867188 C29.65625,1.96289063 24.6171875,0 18.59375,0 L18.59375,0 L0.1015625,0 L0.1015625,51.1875 L18.59375,51.1875 Z" id="Path" fill="#DF0707"></path>
            <path d="M64.6640625,0 L81.2226562,51.1875 L69.2695312,51.1875 L66.3515625,41.2382812 L50.2148438,41.2382812 L47.3320312,51.1875 L35.3789062,51.1875 L51.9023438,0 L64.6640625,0 Z M58.3710938,13.78125 L58.1601562,13.78125 L52.8515625,32.0976562 L63.7148438,32.0976562 L58.3710938,13.78125 Z" id="Combined-Shape" fill="#000000"></path>
            <path d="M99.53125,0 L100.083553,0.00401687622 C105.753437,0.0870323181 110.268555,1.45678711 113.628906,4.11328125 C117.097656,6.85546875 118.832031,10.6054688 118.832031,15.3632812 C118.832031,18.0117188 118.134766,20.2851562 116.740234,22.1835938 C115.345703,24.0820312 113.289062,25.6289062 110.570312,26.8242188 C113.710938,27.7148437 115.966797,29.1972656 117.337891,31.2714844 C118.708984,33.3457031 119.394531,35.9296875 119.394531,39.0234375 L119.394531,39.0234375 L119.394531,42.2578125 L119.400508,42.6642188 C119.436367,43.9003125 119.633594,45.2882812 119.992188,46.828125 C120.390625,48.5390625 121.082031,49.7578125 122.066406,50.484375 L122.066406,50.484375 L122.066406,51.1875 L109.832031,51.1875 L109.669935,51.053444 C108.823266,50.3073367 108.262063,49.0629596 107.986328,47.3203125 C107.693359,45.46875 107.546875,43.7578125 107.546875,42.1875 L107.546875,42.1875 L107.546875,39.09375 L107.542041,38.7324316 C107.480811,36.4713574 106.837891,34.7285156 105.613281,33.5039062 C104.324219,32.2148438 102.4375,31.5703125 99.953125,31.5703125 L99.953125,31.5703125 L91.7617188,31.5703125 L91.7617188,51.1875 L79.84375,51.1875 L79.84375,0 L99.53125,0 Z M99.53125,9.140625 L91.7617188,9.140625 L91.7617188,22.4296875 L99.6015625,22.4296875 C101.992188,22.4296875 103.820312,21.8847656 105.085938,20.7949219 C106.351562,19.7050781 106.984375,18.140625 106.984375,16.1015625 C106.984375,14.015625 106.333984,12.3339844 105.033203,11.0566406 C103.732422,9.77929688 101.898438,9.140625 99.53125,9.140625 L99.53125,9.140625 Z" id="Combined-Shape" fill="#000000"></path>
            <polygon id="Path" fill="#000000" points="133.292969 51.1875 133.292969 30.65625 138.777344 30.65625 150.238281 51.1875 164.722656 51.1875 147.496094 23.1679688 163.351562 0 148.585938 0 137.335938 20.0390625 133.292969 20.0390625 133.292969 0 121.375 0 121.375 51.1875"></polygon>
            <polygon id="Path" fill="#000000" points="35.71875 102.1875 35.71875 93.046875 12.0585938 93.046875 12.0585938 80.2851562 32.1328125 80.2851562 32.1328125 71.1445312 12.0585938 71.1445312 12.0585938 60.140625 35.7890625 60.140625 35.7890625 51 0.140625 51 0.140625 102.1875"></polygon>
            <polygon id="Path" fill="#000000" transform="translate(17.974609, 123.781250) rotate(90.000000) translate(-17.974609, -123.781250) " points="24.3554688 141.28125 40.9492188 106.28125 28.5039062 106.28125 18.34375 131.882212 17.9921875 133.060096 17.78125 133.060096 17.4296875 131.786058 7.41015625 106.28125 -5 106.28125 11.5234375 141.28125"></polygon>
            <polygon id="Path" fill="#000000" points="61.983845 146.1875 95.09375 61.1875 79.1371693 61.1875 46.09375 146.1875"></polygon>
            <path d="M17.7851562,42.046875 L12.0195312,42.046875 L12.0195312,9.140625 L17.7851562,9.140625 C20.9492188,9.140625 23.421875,10.21875 25.203125,12.375 C26.984375,14.53125 27.875,17.3789062 27.875,20.9179688 L27.875,20.9179688 L27.875,30.1992188 C27.875,33.7617188 26.984375,36.6269531 25.203125,38.7949219 C23.421875,40.9628906 20.9492188,42.046875 17.7851562,42.046875 L17.7851562,42.046875 Z" id="Path" fill="#000000"></path>
            <polygon id="Path" fill="#000000" points="99.09375 146.1875 165.09375 115.153017 165.09375 92.2219828 99.09375 61.1875 99.09375 87.5668103 140.30642 103.601293 140.30642 104.118534 99.09375 119.721983"></polygon>
        </g>
    </g>
</svg>